<?xml version="1.0" standalone="no"?>
<!DOCTYPE svg PUBLIC "-//W3C//DTD SVG 20010904//EN"
 "http://www.w3.org/TR/2001/REC-SVG-20010904/DTD/svg10.dtd">
<svg version="1.0" xmlns="http://www.w3.org/2000/svg"
 width="200.000000pt" height="200.000000pt" viewBox="0 0 200.000000 200.000000"
 preserveAspectRatio="xMidYMid meet">

<g transform="translate(0.000000,200.000000) scale(0.100000,-0.100000)"
fill="#000000" stroke="none">
<path d="M743 1919 c23 -13 22 -29 -2 -29 -11 0 -23 -4 -26 -10 -3 -5 3 -10
15 -10 19 0 20 -1 6 -16 -12 -12 -13 -20 -6 -35 6 -10 15 -19 20 -19 4 0 16
-3 25 -6 14 -6 16 -2 13 21 -2 18 2 30 11 33 10 3 12 -1 8 -17 -3 -14 -1 -21
6 -18 20 6 13 41 -10 52 -20 10 -20 12 -5 22 15 11 16 12 1 12 -9 1 -22 8 -29
16 -7 8 -20 15 -29 15 -14 -1 -14 -2 2 -11z m18 -92 c-13 -13 -26 -3 -16 12 3
6 11 8 17 5 6 -4 6 -10 -1 -17z"/>
<path d="M923 1912 c-27 -4 -29 -19 -6 -44 15 -17 15 -18 0 -18 -22 0 -22 -16
1 -24 9 -3 23 -9 31 -12 9 -5 11 -1 7 12 -3 11 -2 33 3 49 9 28 9 27 10 -17 1
-27 5 -48 10 -48 13 0 19 100 6 101 -5 0 -17 2 -25 3 -8 1 -25 0 -37 -2z"/>
<path d="M1114 1891 c4 -6 16 -11 27 -11 10 0 19 -5 19 -11 0 -7 -10 -9 -25
-7 -32 7 -39 -3 -20 -28 8 -11 14 -14 15 -6 0 6 5 12 11 12 7 0 9 -11 6 -30
-4 -16 -3 -30 2 -30 11 0 21 25 21 50 0 10 7 25 15 34 18 17 13 22 -39 31 -28
6 -37 5 -32 -4z"/>
<path d="M578 1833 c-21 -9 -38 -20 -38 -25 0 -6 8 -7 18 -3 9 4 26 9 37 12
19 4 19 3 3 -10 -16 -13 -16 -15 -1 -30 23 -23 8 -34 -17 -12 -23 21 -27 4 -4
-19 20 -21 43 -20 52 2 5 13 8 8 12 -18 4 -27 10 -36 28 -38 12 -2 22 1 22 7
0 6 -7 11 -16 11 -8 0 -12 5 -9 11 5 7 15 5 31 -5 26 -18 34 -20 34 -8 0 5
-17 18 -39 30 -40 23 -68 70 -57 97 7 18 -7 18 -56 -2z"/>
<path d="M1328 1823 c33 -17 46 -41 15 -28 -36 15 -58 11 -61 -12 -2 -12 1
-30 7 -40 8 -15 10 -11 11 21 0 33 12 44 16 15 1 -5 2 -12 3 -15 0 -4 8 0 17
7 15 12 16 11 9 -11 -4 -14 -10 -31 -12 -37 -3 -7 -1 -13 5 -13 6 0 16 16 22
35 6 19 19 39 28 44 13 7 8 13 -26 30 -23 12 -47 21 -54 20 -7 0 2 -8 20 -16z"/>
<path d="M416 1736 c-30 -23 -30 -23 -9 -35 12 -6 24 -20 28 -30 7 -23 35 -34
59 -25 25 10 19 27 -8 20 -18 -4 -28 0 -40 19 -18 28 -21 45 -6 45 5 0 12 -11
16 -25 5 -22 24 -36 24 -18 0 13 -24 73 -30 73 -3 0 -18 -11 -34 -24z"/>
<path d="M784 1700 c-91 -23 -129 -40 -200 -85 -357 -229 -445 -707 -191
-1045 83 -111 184 -188 305 -234 101 -38 158 -49 262 -48 324 2 599 210 697
528 14 45 18 90 17 194 0 118 -4 145 -27 215 -38 115 -91 199 -183 291 -65 65
-98 89 -175 127 -52 25 -123 53 -159 62 -91 21 -257 19 -346 -5z m360 -15
c240 -66 442 -271 499 -505 25 -100 31 -190 18 -266 -50 -301 -252 -522 -542
-595 -107 -28 -269 -23 -369 11 -206 69 -362 218 -444 423 -38 97 -49 167 -43
287 6 118 22 181 76 290 51 106 195 250 301 302 72 35 152 62 215 72 56 8 230
-3 289 -19z"/>
<path d="M887 1673 c-14 -14 -7 -43 11 -42 10 0 12 3 5 6 -7 2 -13 12 -13 20
0 10 6 13 16 9 8 -3 12 -2 9 4 -7 12 -19 13 -28 3z"/>
<path d="M988 1653 c5 -21 7 -23 10 -9 2 10 0 22 -6 28 -6 6 -7 0 -4 -19z"/>
<path d="M855 1653 c3 -13 2 -23 -4 -23 -5 0 -12 8 -14 18 -4 13 -5 11 -6 -5
-1 -15 5 -23 14 -23 21 0 31 28 15 43 -10 9 -11 7 -5 -10z"/>
<path d="M936 1654 c-3 -9 -6 -17 -6 -18 0 -1 9 -2 20 -2 11 0 20 1 20 2 0 1
-3 9 -6 18 -8 20 -20 20 -28 0z"/>
<path d="M1022 1650 c0 -14 2 -19 5 -12 2 6 2 18 0 25 -3 6 -5 1 -5 -13z"/>
<path d="M1047 1664 c-16 -16 -7 -44 14 -44 15 0 20 5 17 22 -3 22 -19 33 -31
22z m23 -19 c0 -8 -4 -15 -10 -15 -5 0 -10 7 -10 15 0 8 5 15 10 15 6 0 10 -7
10 -15z"/>
<path d="M776 1651 c-9 -14 4 -41 19 -41 21 0 28 19 15 35 -14 17 -26 19 -34
6z m24 -17 c0 -8 -5 -12 -10 -9 -6 4 -8 11 -5 16 9 14 15 11 15 -7z"/>
<path d="M1097 1643 c-4 -3 -7 -13 -7 -22 1 -13 3 -13 11 2 11 19 8 33 -4 20z"/>
<path d="M732 1618 c3 -25 25 -36 25 -13 0 8 -4 15 -9 15 -5 0 -6 5 -3 10 3 6
1 10 -5 10 -6 0 -10 -10 -8 -22z"/>
<path d="M1110 1615 c0 -8 5 -15 10 -15 6 0 10 7 10 15 0 8 -4 15 -10 15 -5 0
-10 -7 -10 -15z"/>
<path d="M1152 1618 c-18 -18 -14 -32 5 -17 11 10 14 10 9 2 -4 -7 -2 -13 3
-13 6 0 11 9 11 20 0 23 -10 26 -28 8z"/>
<path d="M680 1603 c0 -7 -7 -13 -15 -13 -9 0 -12 -6 -9 -15 4 -8 1 -15 -6
-15 -6 0 -8 -4 -5 -10 3 -5 -1 -10 -9 -10 -19 0 -20 11 -3 29 10 11 9 13 -3 9
-22 -7 -25 -37 -4 -45 10 -4 22 0 29 10 7 9 15 13 19 9 4 -4 6 0 4 8 -1 8 3
14 10 13 14 -3 15 6 2 27 -6 10 -10 11 -10 3z"/>
<path d="M1196 1593 c-4 -9 -3 -20 1 -24 4 -4 9 3 9 17 2 28 -1 31 -10 7z"/>
<path d="M1280 1548 c-12 -22 -12 -22 6 -6 10 10 15 20 12 24 -4 3 -12 -5 -18
-18z"/>
<path d="M1301 1536 c-8 -9 -11 -19 -7 -23 3 -3 6 0 7 8 1 8 4 3 8 -11 l7 -25
13 24 c7 13 8 21 3 17 -6 -3 -12 1 -14 10 -3 16 -4 16 -17 0z"/>
<path d="M570 1533 c1 -19 18 -33 34 -27 15 6 15 7 -1 20 -20 15 -33 18 -33 7z"/>
<path d="M537 1503 c-12 -12 -7 -31 10 -37 24 -9 39 9 23 29 -14 16 -23 19
-33 8z m28 -32 c-6 -5 -25 10 -25 20 0 5 6 4 14 -3 8 -7 12 -15 11 -17z"/>
<path d="M1336 1494 c-3 -9 -3 -20 0 -25 9 -15 26 1 20 18 -5 11 -2 13 9 9 9
-3 13 -2 10 4 -9 15 -32 12 -39 -6z"/>
<path d="M1378 1458 c-19 -19 -15 -21 14 -10 10 4 14 12 10 18 -5 6 -13 4 -24
-8z"/>
<path d="M500 1452 c0 -16 32 -24 44 -11 8 9 8 10 -2 5 -7 -4 -19 -2 -27 4 -9
7 -15 8 -15 2z"/>
<path d="M1400 1425 c-11 -13 -10 -14 4 -9 9 3 16 10 16 15 0 13 -6 11 -20 -6z"/>
<path d="M475 1420 c-2 -4 5 -16 18 -26 12 -10 19 -15 15 -10 -4 5 -3 15 2 21
8 9 5 14 -10 18 -11 3 -22 2 -25 -3z"/>
<path d="M1415 1398 l-20 -21 21 11 c12 6 24 8 28 4 4 -3 4 1 0 11 -3 9 -7 17
-8 16 0 0 -10 -10 -21 -21z"/>
<path d="M452 1375 c-11 -13 -9 -15 14 -15 22 0 25 2 14 15 -15 18 -12 18 -28
0z"/>
<path d="M1434 1366 c-26 -20 -6 -44 23 -27 16 11 16 11 -4 6 -27 -8 -30 3 -5
21 9 7 14 14 11 14 -3 0 -14 -6 -25 -14z"/>
<path d="M445 1320 c10 -11 19 -20 20 -20 2 0 5 9 8 20 4 16 0 20 -20 20 -25
0 -26 0 -8 -20z"/>
<path d="M1466 1315 c-19 -14 -19 -15 7 -15 19 0 25 4 21 15 -4 8 -7 15 -8 15
0 0 -10 -7 -20 -15z"/>
<path d="M417 1294 c-16 -16 -6 -34 19 -34 19 0 25 5 22 17 -3 19 -29 29 -41
17z m28 -14 c3 -5 -1 -10 -9 -10 -9 0 -16 5 -16 10 0 6 4 10 9 10 6 0 13 -4
16 -10z"/>
<path d="M1463 1265 c-3 -9 -3 -19 1 -22 3 -4 6 2 6 13 0 16 2 17 10 4 9 -13
10 -13 10 0 0 13 1 13 10 0 8 -13 10 -12 10 3 0 22 -38 23 -47 2z"/>
<path d="M380 1084 c0 -8 5 -12 10 -9 6 4 8 11 5 16 -9 14 -15 11 -15 -7z"/>
<path d="M365 1040 c3 -5 11 -10 16 -10 6 0 7 5 4 10 -3 6 -11 10 -16 10 -6 0
-7 -4 -4 -10z"/>
<path d="M1530 1030 c0 -5 5 -10 11 -10 5 0 7 5 4 10 -3 6 -8 10 -11 10 -2 0
-4 -4 -4 -10z"/>
<path d="M376 987 c3 -10 9 -15 12 -12 3 3 0 11 -7 18 -10 9 -11 8 -5 -6z"/>
<path d="M950 969 c0 -6 -8 -8 -19 -4 -11 3 -22 1 -26 -5 -4 -6 -14 -9 -22 -6
-8 3 -21 -1 -29 -9 -9 -8 -24 -15 -35 -15 -11 0 -29 -8 -40 -19 -12 -11 -29
-16 -44 -13 -14 2 -25 3 -25 1 0 -2 7 -29 15 -59 19 -70 20 -63 -16 -84 -28
-16 -30 -20 -15 -28 10 -6 31 -14 48 -19 28 -7 36 -4 70 26 21 19 47 35 58 35
23 0 23 2 9 -38 -14 -40 -59 -60 -102 -44 -18 7 -35 8 -40 3 -17 -17 81 -23
113 -7 27 13 31 13 42 -3 7 -10 23 -23 35 -29 17 -9 23 -23 26 -60 l3 -47 4
50 3 50 7 -55 7 -55 1 52 c2 43 6 54 25 64 12 7 28 20 35 30 10 15 18 16 38 9
32 -13 95 -13 114 0 10 6 11 10 3 10 -7 0 -13 5 -13 10 0 6 8 10 18 10 10 0
26 6 36 13 17 13 16 15 -18 36 -25 16 -34 27 -28 35 5 6 12 25 15 41 3 17 9
38 13 49 6 16 3 17 -24 11 -25 -5 -32 -3 -32 9 0 10 -6 13 -17 9 -10 -4 -14
-2 -10 4 5 7 -6 11 -29 10 -20 -1 -39 5 -44 12 -4 8 -15 11 -24 8 -8 -3 -18
-2 -22 4 -3 5 -14 7 -25 4 -11 -4 -19 -2 -19 4 0 6 -4 11 -10 11 -5 0 -10 -5
-10 -11z m45 -70 c22 -51 25 -66 16 -85 -13 -30 -33 -38 -66 -30 -45 11 -51
45 -20 115 15 33 31 61 35 61 4 0 20 -28 35 -61z m-65 48 c0 -2 -7 -19 -17
-37 -9 -19 -16 -54 -16 -78 l0 -45 -20 24 c-15 19 -18 34 -13 73 6 57 10 63
31 46 12 -10 15 -10 15 4 0 9 5 16 10 16 6 0 10 -2 10 -3z m80 -7 c0 -5 -4
-10 -10 -10 -5 0 -10 5 -10 10 0 6 5 10 10 10 6 0 10 -4 10 -10z m45 -37 c6
-32 8 -35 17 -19 7 13 7 21 -2 26 -9 5 -9 9 -1 14 6 4 11 3 11 -2 0 -6 9 -8
20 -5 17 5 20 0 22 -28 3 -76 -6 -93 -57 -105 -29 -7 -30 -7 -12 13 9 11 17
28 16 39 0 18 -1 18 -9 -1 -4 -12 -14 -26 -22 -33 -12 -10 -14 -7 -10 18 2 17
-1 44 -8 60 -10 24 -10 33 0 45 19 23 27 18 35 -22z m-200 17 c3 -5 1 -10 -4
-10 -6 0 -11 5 -11 10 0 6 2 10 4 10 3 0 8 -4 11 -10z m-23 -17 c10 -9 18 -30
18 -47 0 -17 7 -42 16 -54 14 -21 14 -22 -5 -22 -38 0 -61 35 -61 90 0 54 4
59 32 33z m310 -15 c-7 -7 -12 -8 -12 -2 0 14 12 26 19 19 2 -3 -1 -11 -7 -17z
m-362 -8 c-9 -5 -9 -9 -1 -14 6 -4 11 -18 11 -31 0 -13 5 -27 10 -30 16 -10
11 -25 -8 -25 -26 0 -49 29 -57 72 -6 34 -5 36 14 31 13 -3 21 -1 21 6 0 7 5
9 11 5 8 -5 8 -9 -1 -14z m414 -17 c-8 -34 -31 -73 -43 -73 -5 0 -16 -3 -25
-6 -14 -6 -14 -3 -1 22 8 16 15 37 15 46 0 17 25 37 48 38 8 0 10 -9 6 -27z
m4 -99 c12 -8 20 -20 17 -25 -11 -17 -71 -10 -89 10 -17 18 -17 19 1 24 34 9
49 7 71 -9z m-378 -3 c0 -29 -77 -52 -109 -32 -10 7 -8 12 10 25 25 17 99 22
99 7z m210 -10 c24 -45 0 -83 -56 -87 -67 -6 -101 35 -74 87 9 15 22 19 65 19
43 0 56 -4 65 -19z m96 -18 c36 -37 36 -38 12 -41 -38 -5 -75 14 -91 47 -15
31 -15 31 13 31 20 0 40 -11 66 -37z"/>
<path d="M396 875 c4 -8 8 -15 10 -15 2 0 4 7 4 15 0 8 -4 15 -10 15 -5 0 -7
-7 -4 -15z"/>
<path d="M1517 865 c3 -8 9 -12 14 -9 12 7 11 11 -5 17 -10 4 -13 1 -9 -8z"/>
<path d="M410 829 c0 -5 5 -7 10 -4 6 3 10 8 10 11 0 2 -4 4 -10 4 -5 0 -10
-5 -10 -11z"/>
<path d="M430 779 c0 -5 5 -7 10 -4 6 3 10 8 10 11 0 2 -4 4 -10 4 -5 0 -10
-5 -10 -11z"/>
<path d="M455 730 c3 -5 8 -10 11 -10 2 0 4 5 4 10 0 6 -5 10 -11 10 -5 0 -7
-4 -4 -10z"/>
<path d="M485 680 c3 -5 8 -10 11 -10 2 0 4 5 4 10 0 6 -5 10 -11 10 -5 0 -7
-4 -4 -10z"/>
<path d="M1448 663 c7 -3 16 -2 19 1 4 3 -2 6 -13 5 -11 0 -14 -3 -6 -6z"/>
<path d="M515 640 c3 -5 8 -10 11 -10 2 0 4 5 4 10 0 6 -5 10 -11 10 -5 0 -7
-4 -4 -10z"/>
<path d="M800 447 c0 -10 8 -17 18 -17 9 0 13 4 7 8 -5 4 -13 11 -17 16 -5 5
-8 2 -8 -7z"/>
<path d="M860 429 c0 -11 4 -18 10 -14 5 3 7 12 3 20 -7 21 -13 19 -13 -6z"/>
<path d="M1057 427 c-3 -8 1 -14 8 -14 7 0 11 6 8 14 -3 7 -6 13 -8 13 -2 0
-5 -6 -8 -13z"/>
<path d="M1650 1583 c0 -7 -7 -13 -15 -13 -18 0 -19 -14 -4 -43 12 -22 11 -22
-9 -4 -25 22 -33 11 -18 -25 11 -26 11 -26 36 -8 20 15 23 21 13 31 -19 19
-16 34 3 18 19 -16 44 -21 44 -9 0 14 -49 66 -50 53z"/>
<path d="M150 1420 c-11 -22 -16 -40 -10 -40 5 0 10 5 10 10 0 18 22 10 27
-10 6 -22 28 -27 39 -8 7 10 -14 32 -40 41 -6 2 -8 7 -4 11 3 4 24 -2 47 -14
23 -11 41 -16 41 -10 0 6 -16 18 -35 27 -19 9 -35 20 -35 25 0 21 -22 4 -40
-32z"/>
<path d="M1760 1422 c0 -7 7 -26 15 -42 9 -18 11 -31 5 -35 -6 -3 -10 1 -10 9
0 9 -4 16 -9 16 -13 0 -41 -41 -41 -60 1 -12 3 -12 11 3 10 17 30 24 28 10 -4
-22 3 -25 16 -7 13 16 16 17 25 4 8 -12 10 -12 9 5 0 22 -48 117 -49 97z"/>
<path d="M1710 1395 c0 -15 26 -32 36 -23 2 3 2 13 -2 22 -8 20 -34 21 -34 1z"/>
<path d="M245 1370 c3 -5 8 -10 11 -10 2 0 4 5 4 10 0 6 -5 10 -11 10 -5 0 -7
-4 -4 -10z"/>
<path d="M86 1250 c-19 -62 -20 -80 -6 -80 6 0 10 9 10 20 0 11 4 20 8 20 4 0
8 -12 7 -27 0 -23 5 -29 25 -31 19 -2 29 5 41 26 l16 29 -43 11 c-29 8 -44 17
-44 28 0 11 5 14 18 9 9 -4 32 -9 51 -12 46 -8 32 14 -14 23 -20 3 -39 13 -44
22 -7 12 -13 3 -25 -38z"/>
<path d="M1766 1181 c-19 -21 -19 -52 0 -58 7 -2 10 6 7 21 -4 19 0 28 13 33
11 4 19 2 22 -6 2 -7 13 -21 23 -29 26 -23 24 -32 -8 -33 -16 0 -37 -4 -48 -8
-15 -6 -5 -9 35 -12 30 -3 57 -1 58 3 2 4 10 8 18 8 9 0 14 11 14 35 0 26 -4
35 -16 35 -9 0 -23 8 -30 18 -12 16 -13 15 -14 -8 l0 -24 -16 22 c-19 27 -36
28 -58 3z m124 -40 c0 -11 -4 -22 -9 -25 -11 -7 -23 22 -15 35 9 16 24 10 24
-10z"/>
<path d="M50 1006 c0 -31 5 -56 10 -56 6 0 10 19 10 43 0 31 3 38 10 27 5 -8
10 -25 10 -36 0 -12 7 -24 15 -27 16 -7 64 28 53 38 -4 4 -14 0 -23 -9 -9 -9
-21 -13 -27 -10 -6 4 -5 10 3 16 11 7 11 11 2 15 -24 9 -13 23 17 23 17 0 30
5 30 10 0 6 -18 10 -39 10 -22 0 -46 3 -55 6 -13 5 -16 -3 -16 -50z"/>
<path d="M1765 947 c-11 -7 -21 -12 -21 -12 -1 0 -5 -11 -9 -25 -7 -22 -6 -23
8 -12 10 9 17 10 22 2 12 -20 25 -10 19 15 -5 21 -3 25 15 25 12 0 21 -6 21
-15 0 -8 9 -24 19 -34 17 -17 20 -17 25 -4 3 8 6 28 6 44 0 34 -20 30 -21 -4
0 -19 -2 -19 -11 6 -11 30 -38 35 -73 14z"/>
<path d="M70 829 c0 -8 7 -40 16 -70 15 -49 18 -52 27 -31 11 25 27 29 27 7 0
-8 3 -15 8 -15 18 1 29 18 35 51 l5 36 -49 -5 c-60 -6 -68 15 -9 24 62 10 59
25 -4 22 -43 -2 -56 -7 -56 -19z m95 -60 c10 -16 -3 -23 -18 -10 -8 6 -22 9
-31 5 -9 -3 -16 -1 -16 5 0 14 57 14 65 0z"/>
<path d="M1746 768 c-12 -17 -18 -20 -28 -10 -17 17 -48 15 -48 -4 0 -14 3
-14 15 -4 12 10 15 10 15 -3 0 -9 -9 -19 -20 -22 -11 -3 -20 -11 -20 -16 0
-13 12 -11 38 6 18 13 28 14 62 4 22 -7 40 -16 40 -21 0 -22 18 -4 28 27 9 33
9 35 -8 30 -13 -4 -22 1 -30 15 -14 26 -25 25 -44 -2z m59 -45 c0 -1 -11 0
-23 4 -13 3 -22 13 -22 24 0 17 2 16 23 -4 13 -12 23 -23 22 -24z"/>
<path d="M228 636 c-24 -18 -23 -36 2 -36 11 0 20 -7 20 -15 0 -20 -26 -19
-42 3 -13 17 -58 28 -58 14 0 -14 40 -72 50 -72 7 0 8 6 0 19 -13 25 -13 42 1
19 22 -39 77 -9 63 34 -4 13 -7 29 -6 36 4 15 -8 15 -30 -2z"/>
<path d="M1668 619 c-10 -5 -18 -19 -18 -29 0 -27 16 -25 23 1 7 28 32 19 31
-12 -1 -13 5 -30 13 -38 13 -12 16 -12 24 0 21 31 29 49 23 49 -4 0 -13 -8
-20 -17 -12 -16 -13 -16 -14 9 0 17 -8 31 -19 38 -23 12 -22 12 -43 -1z"/>
<path d="M1572 434 c3 -17 21 -21 26 -6 1 5 -4 12 -13 16 -11 4 -15 1 -13 -10z"/>
<path d="M345 422 c-16 -11 -16 -32 -1 -32 8 0 17 4 20 8 7 12 -8 32 -19 24z"/>
<path d="M510 334 c0 -3 9 -13 21 -23 l21 -17 -27 1 c-43 0 -53 -27 -24 -63
13 -17 28 -31 33 -31 5 -1 6 2 3 6 -4 3 -2 12 4 19 15 18 1 36 -22 29 -14 -5
-19 -2 -19 10 0 13 6 16 23 11 24 -6 67 2 67 13 0 6 -66 51 -75 51 -3 0 -5 -3
-5 -6z"/>
<path d="M1358 312 c-29 -18 -37 -34 -15 -29 6 1 12 -8 12 -20 1 -31 21 -51
36 -36 9 9 8 18 -5 37 -19 30 -20 36 -5 36 5 0 17 -16 25 -35 8 -19 19 -35 24
-35 11 0 3 25 -18 57 -7 12 -11 27 -7 33 9 15 -16 11 -47 -8z"/>
<path d="M688 238 c16 -16 15 -28 -3 -28 -9 0 -15 -9 -15 -25 0 -18 7 -26 25
-31 14 -3 25 -10 25 -15 0 -5 4 -9 10 -9 5 0 12 16 16 35 6 32 20 53 29 44 2
-2 0 -23 -5 -47 -4 -23 -4 -45 1 -47 4 -3 11 11 15 32 4 21 11 44 17 51 13 17
9 20 -57 37 -69 18 -73 18 -58 3z m52 -27 c0 -23 -14 -41 -31 -41 -23 0 -24 5
-1 29 19 21 32 26 32 12z"/>
<path d="M1173 236 c-53 -14 -65 -26 -27 -27 27 0 28 -1 7 -9 -25 -10 -30 -41
-10 -58 12 -10 67 -12 67 -2 0 3 -4 21 -10 40 -6 22 -6 38 0 44 6 6 14 -8 22
-37 7 -26 16 -47 21 -47 5 0 6 12 1 28 -4 15 -8 39 -8 55 -1 29 -2 30 -63 13z
m-5 -70 c-7 -8 -15 -12 -17 -11 -5 6 10 25 20 25 5 0 4 -6 -3 -14z"/>
<path d="M945 199 c-26 -6 -25 -7 13 -8 27 -1 41 -5 37 -11 -4 -6 -14 -10 -23
-9 -34 3 -42 -2 -42 -25 0 -25 26 -54 38 -41 4 4 1 10 -5 12 -7 3 -13 11 -13
19 0 17 20 19 20 2 0 -8 7 -5 15 6 14 19 15 18 15 -12 0 -18 5 -32 10 -32 6 0
10 18 10 39 0 22 3 46 6 55 6 16 -19 18 -81 5z"/>
</g>
</svg>
